<mxfile host="app.diagrams.net" modified="2023-11-22T19:53:52.734Z" agent="Mozilla/5.0 (X11; Linux x86_64; rv:109.0) Gecko/20100101 Firefox/114.0" version="22.1.3" etag="EMwcxR3VCcIf2_vWOW7E" type="github">
  <diagram name="PÃ¡gina-1" id="VyfMRNd0Bh-DAvt0JxaQ">
    <mxGraphModel>
      <root>
        <mxCell id="0" />
        <mxCell id="1" parent="0" />
      </root>
    </mxGraphModel>
  </diagram>
</mxfile>
